<svg xmlns="http://www.w3.org/2000/svg" width="512" height="512" viewBox="0 0 512 512">
<g>
<path d="M 93.55 493.55 L 91.09 496.00 L 56.80 495.93 C35.36,495.89 21.70,495.48 20.36,494.83 C19.19,494.26 17.73,492.70 17.11,491.35 C15.59,488.00 15.52,176.14 17.05,172.80 C18.01,170.68 29.91,162.71 130.50,96.84 C143.70,88.19 175.43,67.35 201.00,50.52 C226.57,33.70 249.36,18.98 251.63,17.83 C254.18,16.52 256.66,15.95 258.13,16.32 C259.43,16.65 276.70,27.57 296.50,40.58 C316.30,53.59 337.45,67.44 343.50,71.36 C349.55,75.29 363.38,84.35 374.24,91.50 C385.10,98.65 400.62,108.84 408.74,114.14 C416.86,119.45 432.05,129.39 442.50,136.24 C452.95,143.08 468.77,153.44 477.67,159.25 C486.56,165.06 494.32,170.73 494.92,171.84 C495.68,173.27 496.00,220.49 496.00,332.48 L 496.00 491.09 L 493.55 493.55 L 491.09 496.00 L 457.09 496.00 C421.13,496.00 419.13,495.77 417.11,491.34 C416.32,489.61 416.00,458.87 416.00,384.45 L 416.00 280.00 L 96.00 280.00 L 96.00 491.09 ZM 32.00 224.00 L 32.00 480.00 L 80.00 480.00 L 80.00 268.91 L 82.45 266.45 L 84.91 264.00 L 427.09 264.00 L 429.55 266.45 L 432.00 268.91 L 432.00 480.00 L 480.00 480.00 L 480.00 224.00 L 384.00 224.00 L 384.00 208.00 L 480.00 208.00 L 480.00 180.22 L 442.02 155.36 C421.12,141.69 396.82,125.78 388.01,120.00 C379.20,114.22 357.93,100.29 340.75,89.03 C323.56,77.77 297.61,60.76 283.09,51.23 C268.56,41.71 256.10,34.13 255.41,34.40 C254.71,34.67 243.64,41.78 230.82,50.21 C217.99,58.64 194.79,73.86 179.25,84.02 C163.72,94.18 131.32,115.40 107.25,131.17 C83.19,146.94 56.41,164.48 47.75,170.15 L 32.00 180.45 L 32.00 208.00 L 128.00 208.00 L 128.00 224.00 ZM 381.55 493.55 L 379.09 496.00 L 256.80 495.93 C174.75,495.89 133.80,495.52 132.36,494.83 C131.19,494.26 129.73,492.70 129.11,491.35 C127.56,487.95 127.56,408.06 129.11,404.66 C129.72,403.32 131.32,401.72 132.66,401.11 C134.30,400.36 146.96,400.00 171.55,400.00 L 208.00 400.00 L 208.00 363.55 C208.00,338.96 208.36,326.30 209.11,324.66 C209.72,323.32 211.32,321.72 212.66,321.11 C214.38,320.33 239.13,320.00 297.09,320.00 L 379.09 320.00 L 381.55 322.45 L 384.00 324.91 L 384.00 491.09 ZM 277.55 245.55 C275.11,247.98 274.94,248.00 256.00,248.00 C237.06,248.00 236.89,247.98 234.45,245.55 C232.28,243.37 232.00,242.23 232.00,235.50 L 232.00 227.90 L 228.75 226.54 C225.56,225.19 225.44,225.24 220.36,230.04 C215.09,235.02 211.58,236.64 208.27,235.59 C207.24,235.26 200.46,228.99 193.20,221.66 C177.38,205.69 177.36,205.62 185.67,196.90 L 191.35 190.95 L 189.69 187.48 L 188.03 184.00 L 180.47 184.00 C173.78,184.00 172.63,183.72 170.45,181.55 C168.02,179.11 168.00,178.94 168.00,160.00 C168.00,141.06 168.02,140.89 170.45,138.45 C172.63,136.28 173.78,136.00 180.43,136.00 C187.79,136.00 187.98,135.94 189.51,132.97 C191.08,129.95 191.07,129.94 185.54,123.42 C181.90,119.13 180.00,115.99 180.00,114.28 C180.00,110.86 204.85,85.41 209.10,84.48 C212.54,83.72 215.04,85.02 221.11,90.70 C225.84,95.12 225.85,95.13 228.92,93.54 C231.95,91.98 232.00,91.81 232.00,84.43 C232.00,77.78 232.28,76.63 234.45,74.45 C236.89,72.02 237.06,72.00 256.00,72.00 C274.94,72.00 275.11,72.02 277.55,74.45 C279.72,76.63 280.00,77.78 280.00,84.45 L 280.00 91.99 L 283.24 93.32 C286.42,94.61 286.61,94.54 292.76,89.32 C296.90,85.81 299.93,84.00 301.68,84.00 C303.75,84.00 307.30,86.94 317.71,97.24 C325.07,104.53 331.35,111.54 331.67,112.82 C332.46,115.96 330.85,119.17 325.65,124.79 C321.39,129.40 321.32,129.57 322.65,132.75 L 324.01 136.00 L 331.55 136.00 C338.22,136.00 339.37,136.28 341.55,138.45 C343.98,140.89 344.00,141.06 344.00,160.00 C344.00,178.94 343.98,179.11 341.55,181.55 C339.37,183.72 338.22,184.00 331.55,184.00 L 324.01 184.00 L 322.65 187.25 C321.31,190.45 321.36,190.58 326.10,195.64 C331.03,200.92 332.63,204.44 331.59,207.73 C331.26,208.76 324.99,215.54 317.66,222.80 C301.74,238.57 301.59,238.62 293.07,230.49 L 287.30 224.98 L 283.65 226.50 L 280.00 228.03 L 280.00 235.56 C280.00,242.22 279.72,243.37 277.55,245.55 ZM 248.00 228.47 L 248.00 232.00 L 264.00 232.00 L 264.00 228.47 C264.00,220.51 268.13,215.43 277.78,211.51 C287.03,207.75 292.61,208.37 298.28,213.78 L 301.05 216.43 L 306.74 210.74 L 312.43 205.05 L 309.78 202.28 C304.56,196.81 303.81,191.27 307.08,182.52 C310.72,172.80 316.29,168.00 323.95,168.00 L 328.00 168.00 L 328.00 152.00 L 323.95 152.00 C316.29,152.00 310.72,147.20 307.08,137.48 C303.81,128.73 304.56,123.19 309.78,117.72 L 312.43 114.95 L 306.74 109.26 L 301.05 103.57 L 298.28 106.22 C292.61,111.63 287.03,112.25 277.78,108.49 C268.13,104.57 264.00,99.49 264.00,91.53 L 264.00 88.00 L 248.00 88.00 L 248.00 91.53 C248.00,99.53 243.19,105.29 233.48,108.92 C224.73,112.19 219.19,111.44 213.72,106.22 L 210.95 103.57 L 205.26 109.26 L 199.57 114.95 L 202.22 117.72 C207.44,123.19 208.19,128.73 204.92,137.48 C201.28,147.20 195.71,152.00 188.05,152.00 L 184.00 152.00 L 184.00 168.00 L 187.53 168.00 C195.53,168.00 201.29,172.81 204.92,182.52 C208.19,191.27 207.44,196.81 202.22,202.28 L 199.57 205.05 L 205.26 210.74 L 210.95 216.43 L 213.72 213.78 C219.19,208.56 224.73,207.81 233.48,211.08 C243.19,214.71 248.00,220.47 248.00,228.47 ZM 268.14 198.02 C246.46,204.78 224.07,192.81 217.58,170.97 C211.59,150.79 223.66,128.29 243.86,121.98 C274.79,112.33 303.67,141.21 294.02,172.14 C290.33,183.96 279.96,194.33 268.14,198.02 ZM 224.00 336.00 L 224.00 400.00 L 288.00 400.00 L 288.00 336.00 L 264.00 336.00 L 264.00 360.00 L 248.00 360.00 L 248.00 336.00 L 224.00 336.00 ZM 304.00 336.00 L 304.00 400.00 L 368.00 400.00 L 368.00 336.00 L 344.00 336.00 L 344.00 360.00 L 328.00 360.00 L 328.00 336.00 L 304.00 336.00 ZM 144.00 416.00 L 144.00 480.00 L 208.00 480.00 L 208.00 416.00 L 184.00 416.00 L 184.00 440.00 L 168.00 440.00 L 168.00 416.00 ZM 224.00 416.00 L 224.00 480.00 L 288.00 480.00 L 288.00 416.00 L 264.00 416.00 L 264.00 440.00 L 248.00 440.00 L 248.00 416.00 ZM 304.00 416.00 L 304.00 480.00 L 368.00 480.00 L 368.00 416.00 L 344.00 416.00 L 344.00 440.00 L 328.00 440.00 L 328.00 416.00 ZM 249.99 183.07 C264.16,187.38 280.00,175.17 280.00,159.95 C280.00,146.41 267.15,134.76 253.94,136.32 C241.16,137.83 232.57,147.35 232.57,160.00 C232.57,171.20 239.00,179.72 249.99,183.07 ZM 160.00 208.00 L 160.00 224.00 L 144.00 224.00 L 144.00 208.00 ZM 368.00 208.00 L 368.00 224.00 L 352.00 224.00 L 352.00 208.00 Z" fill="rgb(2,0,1)"/>
<path d="M 32.00 224.00 L 128.00 224.00 L 128.00 208.00 L 32.00 208.00 L 32.00 180.45 L 47.75 170.15 C56.41,164.48 83.19,146.94 107.25,131.17 C131.32,115.40 163.72,94.18 179.25,84.02 C194.79,73.86 217.99,58.64 230.82,50.21 C243.64,41.78 254.71,34.67 255.41,34.40 C256.10,34.13 268.56,41.71 283.09,51.23 C297.61,60.76 323.56,77.77 340.75,89.03 C357.93,100.29 379.20,114.22 388.01,120.00 C396.82,125.78 421.12,141.69 442.02,155.36 L 480.00 180.22 L 480.00 208.00 L 384.00 208.00 L 384.00 224.00 L 480.00 224.00 L 480.00 480.00 L 432.00 480.00 L 432.00 268.91 L 429.55 266.45 L 427.09 264.00 L 84.91 264.00 L 82.45 266.45 L 80.00 268.91 L 80.00 480.00 L 32.00 480.00 ZM 277.55 245.55 C279.72,243.37 280.00,242.22 280.00,235.56 L 280.00 228.03 L 283.65 226.50 L 287.30 224.98 L 293.07 230.49 C301.59,238.62 301.74,238.57 317.66,222.80 C324.99,215.54 331.26,208.76 331.59,207.73 C332.63,204.44 331.03,200.92 326.10,195.64 C321.36,190.58 321.31,190.45 322.65,187.25 L 324.01 184.00 L 331.55 184.00 C338.22,184.00 339.37,183.72 341.55,181.55 C343.98,179.11 344.00,178.94 344.00,160.00 C344.00,141.06 343.98,140.89 341.55,138.45 C339.37,136.28 338.22,136.00 331.55,136.00 L 324.01 136.00 L 322.65 132.75 C321.32,129.57 321.39,129.40 325.65,124.79 C330.85,119.17 332.46,115.96 331.67,112.82 C331.35,111.54 325.07,104.53 317.71,97.24 C307.30,86.94 303.75,84.00 301.68,84.00 C299.93,84.00 296.90,85.81 292.76,89.32 C286.61,94.54 286.42,94.61 283.24,93.32 L 280.00 91.99 L 280.00 84.45 C280.00,77.78 279.72,76.63 277.55,74.45 C275.11,72.02 274.94,72.00 256.00,72.00 C237.06,72.00 236.89,72.02 234.45,74.45 C232.28,76.63 232.00,77.78 232.00,84.43 C232.00,91.81 231.95,91.98 228.92,93.54 C225.85,95.13 225.84,95.12 221.11,90.70 C215.04,85.02 212.54,83.72 209.10,84.48 C204.85,85.41 180.00,110.86 180.00,114.28 C180.00,115.99 181.90,119.13 185.54,123.42 C191.07,129.94 191.08,129.95 189.51,132.97 C187.98,135.94 187.79,136.00 180.43,136.00 C173.78,136.00 172.63,136.28 170.45,138.45 C168.02,140.89 168.00,141.06 168.00,160.00 C168.00,178.94 168.02,179.11 170.45,181.55 C172.63,183.72 173.78,184.00 180.47,184.00 L 188.03 184.00 L 189.69 187.48 L 191.35 190.95 L 185.67 196.90 C177.36,205.62 177.38,205.69 193.20,221.66 C200.46,228.99 207.24,235.26 208.27,235.59 C211.58,236.64 215.09,235.02 220.36,230.04 C225.44,225.24 225.56,225.19 228.75,226.54 L 232.00 227.90 L 232.00 235.50 C232.00,242.23 232.28,243.37 234.45,245.55 C236.89,247.98 237.06,248.00 256.00,248.00 C274.94,248.00 275.11,247.98 277.55,245.55 ZM 249.99 183.07 C239.00,179.72 232.57,171.20 232.57,160.00 C232.57,147.35 241.16,137.83 253.94,136.32 C267.15,134.76 280.00,146.41 280.00,159.95 C280.00,175.17 264.16,187.38 249.99,183.07 ZM 160.00 208.00 L 144.00 208.00 L 144.00 224.00 L 160.00 224.00 ZM 368.00 208.00 L 352.00 208.00 L 352.00 224.00 L 368.00 224.00 Z" fill="rgb(180,229,252)"/>
<path d="M 248.00 228.47 C248.00,220.47 243.19,214.71 233.48,211.08 C224.73,207.81 219.19,208.56 213.72,213.78 L 210.95 216.43 L 205.26 210.74 L 199.57 205.05 L 202.22 202.28 C207.44,196.81 208.19,191.27 204.92,182.52 C201.29,172.81 195.53,168.00 187.53,168.00 L 184.00 168.00 L 184.00 152.00 L 188.05 152.00 C195.71,152.00 201.28,147.20 204.92,137.48 C208.19,128.73 207.44,123.19 202.22,117.72 L 199.57 114.95 L 205.26 109.26 L 210.95 103.57 L 213.72 106.22 C219.19,111.44 224.73,112.19 233.48,108.92 C243.19,105.29 248.00,99.53 248.00,91.53 L 248.00 88.00 L 264.00 88.00 L 264.00 91.53 C264.00,99.49 268.13,104.57 277.78,108.49 C287.03,112.25 292.61,111.63 298.28,106.22 L 301.05 103.57 L 306.74 109.26 L 312.43 114.95 L 309.78 117.72 C304.56,123.19 303.81,128.73 307.08,137.48 C310.72,147.20 316.29,152.00 323.95,152.00 L 328.00 152.00 L 328.00 168.00 L 323.95 168.00 C316.29,168.00 310.72,172.80 307.08,182.52 C303.81,191.27 304.56,196.81 309.78,202.28 L 312.43 205.05 L 306.74 210.74 L 301.05 216.43 L 298.28 213.78 C292.61,208.37 287.03,207.75 277.78,211.51 C268.13,215.43 264.00,220.51 264.00,228.47 L 264.00 232.00 L 248.00 232.00 ZM 268.14 198.02 C279.96,194.33 290.33,183.96 294.02,172.14 C303.67,141.21 274.79,112.33 243.86,121.98 C223.66,128.29 211.59,150.79 217.58,170.97 C224.07,192.81 246.46,204.78 268.14,198.02 ZM 224.00 336.00 L 248.00 336.00 L 248.00 360.00 L 264.00 360.00 L 264.00 336.00 L 288.00 336.00 L 288.00 400.00 L 224.00 400.00 ZM 304.00 336.00 L 328.00 336.00 L 328.00 360.00 L 344.00 360.00 L 344.00 336.00 L 368.00 336.00 L 368.00 400.00 L 304.00 400.00 ZM 144.00 416.00 L 168.00 416.00 L 168.00 440.00 L 184.00 440.00 L 184.00 416.00 L 208.00 416.00 L 208.00 480.00 L 144.00 480.00 ZM 224.00 416.00 L 248.00 416.00 L 248.00 440.00 L 264.00 440.00 L 264.00 416.00 L 288.00 416.00 L 288.00 480.00 L 224.00 480.00 ZM 304.00 416.00 L 328.00 416.00 L 328.00 440.00 L 344.00 440.00 L 344.00 416.00 L 368.00 416.00 L 368.00 480.00 L 304.00 480.00 Z" fill="rgb(245,180,90)"/>
<path d="M 0.00 256.00 L 0.00 0.00 L 256.00 0.00 L 512.00 0.00 L 512.00 256.00 L 512.00 512.00 L 256.00 512.00 L 0.00 512.00 L 0.00 256.00 ZM 93.55 493.55 L 96.00 491.09 L 96.00 385.55 L 96.00 280.00 L 256.00 280.00 L 416.00 280.00 L 416.00 384.45 C416.00,458.87 416.32,489.61 417.11,491.34 C419.13,495.77 421.13,496.00 457.09,496.00 L 491.09 496.00 L 493.55 493.55 L 496.00 491.09 L 496.00 332.48 C496.00,220.49 495.68,173.27 494.92,171.84 C494.32,170.73 486.56,165.06 477.67,159.25 C468.77,153.44 452.95,143.08 442.50,136.24 C432.05,129.39 416.86,119.45 408.74,114.14 C400.62,108.84 385.10,98.65 374.24,91.50 C363.38,84.35 349.55,75.29 343.50,71.36 C337.45,67.44 316.30,53.59 296.50,40.58 C276.70,27.57 259.43,16.65 258.13,16.32 C256.66,15.95 254.18,16.52 251.63,17.83 C249.36,18.98 226.57,33.70 201.00,50.52 C175.43,67.35 143.70,88.19 130.50,96.84 C29.91,162.71 18.01,170.68 17.05,172.80 C15.52,176.14 15.59,488.00 17.11,491.35 C17.73,492.70 19.19,494.26 20.36,494.83 C21.70,495.48 35.36,495.89 56.80,495.93 L 91.09 496.00 L 93.55 493.55 ZM 381.55 493.55 L 384.00 491.09 L 384.00 408.00 L 384.00 324.91 L 381.55 322.45 L 379.09 320.00 L 297.09 320.00 C239.13,320.00 214.38,320.33 212.66,321.11 C211.32,321.72 209.72,323.32 209.11,324.66 C208.36,326.30 208.00,338.96 208.00,363.55 L 208.00 400.00 L 171.55 400.00 C146.96,400.00 134.30,400.36 132.66,401.11 C131.32,401.72 129.72,403.32 129.11,404.66 C127.56,408.06 127.56,487.95 129.11,491.35 C129.73,492.70 131.19,494.26 132.36,494.83 C133.80,495.52 174.75,495.89 256.80,495.93 L 379.09 496.00 L 381.55 493.55 Z" fill="rgb(254,254,254)"/>
</g>
</svg>